<svg xmlns="http://www.w3.org/2000/svg" viewBox="-2 -2 32 42">
  <g transform="rotate(-30 14 17)">
    <path d="M14 33 C14 36 15 39 16 42" fill="none" stroke="#5c6e3b" stroke-width="1.5" stroke-linecap="round"/>
    <path d="M14 1 C6 6 1 13 1 19 C1 26 6 33 14 33 C22 33 27 26 27 19 C27 13 22 6 14 1Z" fill="#8A9A5B" stroke="#5c6e3b" stroke-width="1.3" stroke-linejoin="round"/>
    <path d="M14 3 L14 33" fill="none" stroke="#5c6e3b" stroke-width="1" opacity="0.6"/>
    <path d="M14 9 C17 8 21 10 23 12" fill="none" stroke="#5c6e3b" stroke-width="0.8" opacity="0.45" stroke-linecap="round"/>
    <path d="M14 15 C18 14 22 17 24 19" fill="none" stroke="#5c6e3b" stroke-width="0.8" opacity="0.45" stroke-linecap="round"/>
    <path d="M14 21 C17 21 21 23 23 26" fill="none" stroke="#5c6e3b" stroke-width="0.8" opacity="0.45" stroke-linecap="round"/>
    <path d="M14 9 C11 8 7 10 5 12" fill="none" stroke="#5c6e3b" stroke-width="0.8" opacity="0.45" stroke-linecap="round"/>
    <path d="M14 15 C10 14 6 17 4 19" fill="none" stroke="#5c6e3b" stroke-width="0.8" opacity="0.45" stroke-linecap="round"/>
    <path d="M14 21 C11 21 7 23 5 26" fill="none" stroke="#5c6e3b" stroke-width="0.8" opacity="0.45" stroke-linecap="round"/>
  </g>
</svg>
